<svg width="27" height="28" viewBox="0 0 27 28" fill="none" xmlns="http://www.w3.org/2000/svg">
<path d="M12.4333 15.6001C13.9266 15.6001 15.1 14.4267 15.1 12.9334C15.1 11.4401 13.9266 10.2667 12.4333 10.2667C10.94 10.2667 9.76663 11.4401 9.76663 12.9334C9.76663 14.4267 10.94 15.6001 12.4333 15.6001Z" fill="white"/>
<path d="M12.9666 7.06675C12.9666 7.70675 12.54 8.13342 11.9 8.13342H7.63329V12.4001C7.63329 13.0401 7.20663 13.4667 6.56663 13.4667C5.92663 13.4667 5.49996 13.0401 5.49996 12.4001V8.13342H1.23329C0.593293 8.13342 0.166626 7.70675 0.166626 7.06675C0.166626 6.42675 0.593293 6.00008 1.23329 6.00008H5.49996V1.73341C5.49996 1.09341 5.92663 0.666748 6.56663 0.666748C7.20663 0.666748 7.63329 1.09341 7.63329 1.73341V6.00008H11.9C12.54 6.00008 12.9666 6.42675 12.9666 7.06675Z" fill="white"/>
<path fill-rule="evenodd" clip-rule="evenodd" d="M6.56663 15.6001C5.97752 15.6001 5.49996 16.0776 5.49996 16.6667V24.1334C5.49996 25.9468 6.88663 27.3334 8.69996 27.3334H23.6333C25.4466 27.3334 26.8333 25.9468 26.8333 24.1334V9.20008C26.8333 7.38675 25.4466 6.00008 23.6333 6.00008H16.1666C15.5775 6.00008 15.1 6.47764 15.1 7.06675C15.1 7.65585 15.5775 8.13342 16.1666 8.13342H23.6333C24.2733 8.13342 24.7 8.56008 24.7 9.20008V17.3067L21.18 13.7867C20.7533 13.3601 20.1133 13.3601 19.6866 13.7867L8.37996 25.0934C7.95329 24.9867 7.63329 24.5601 7.63329 24.1334V16.6667C7.63329 16.0776 7.15573 15.6001 6.56663 15.6001ZM23.6333 25.2001H11.26L20.4333 16.0267L24.7 20.2934V24.1334C24.7 24.7734 24.2733 25.2001 23.6333 25.2001Z" fill="white"/>
</svg>
