<svg width="32" height="24" viewBox="0 0 32 24" fill="none" xmlns="http://www.w3.org/2000/svg">
<path fill-rule="evenodd" clip-rule="evenodd" d="M16.0003 4.66675C11.9337 4.66675 8.66699 7.93341 8.66699 12.0001C8.66699 16.0667 11.9337 19.3334 16.0003 19.3334C20.067 19.3334 23.3337 16.0667 23.3337 12.0001C23.3337 7.93341 20.067 4.66675 16.0003 4.66675ZM21.9337 11.3334H19.267C19.1337 9.46675 18.5337 7.73341 17.467 6.20008C19.867 6.80008 21.667 8.86675 21.9337 11.3334ZM18.0003 12.6667H14.067C14.2003 14.4667 14.867 16.2001 16.067 17.6001C17.1337 16.2001 17.8003 14.4667 18.0003 12.6667ZM14.067 11.3334C14.267 9.53341 14.9337 7.80008 16.0003 6.40008C17.1337 7.86675 17.8003 9.60008 17.9337 11.3334H14.067ZM12.7337 11.3334C12.867 9.46675 13.467 7.73341 14.467 6.20008C12.1337 6.80008 10.3337 8.86675 10.067 11.3334H12.7337ZM10.067 12.6667H12.7337C12.867 14.5334 13.467 16.2667 14.5337 17.8001C12.1337 17.2001 10.3337 15.1334 10.067 12.6667ZM19.3337 12.6667C19.1337 14.5334 18.5337 16.2667 17.5337 17.8001C19.867 17.2001 21.667 15.1334 22.0003 12.6667H19.3337Z" fill="#191919" fill-opacity="0.4"/>
<rect x="0.5" y="0.5" width="31" height="23" rx="1.5" stroke="#191919" stroke-opacity="0.1"/>
</svg>
