<?xml version="1.0" encoding="UTF-8"?>
<svg width="32px" height="32px" viewBox="0 0 32 32" version="1.1" xmlns="http://www.w3.org/2000/svg" xmlns:xlink="http://www.w3.org/1999/xlink">
    <!-- Generator: sketchtool 59 (101010) - https://sketch.com -->
    <title>F08FC0F6-366E-414A-B0E7-E40EA4389261@1.00x</title>
    <desc>Created with sketchtool.</desc>
    <g id="Min.-1024px" stroke="none" stroke-width="1" fill="none" fill-rule="evenodd">
        <g id="1.8-New-Group---Group-subject---Empty-state" transform="translate(-573.000000, -144.000000)">
            <g id="new-group" transform="translate(423.000000, 32.000000)">
                <g id="change-avatar" transform="translate(126.000000, 88.000000)">
                    <g id="avatar">
                        <g id="icon-/-basic-/-camera" transform="translate(24.000000, 24.000000)">
                            <g id="icon/basic/camera">
                                <g>
                                    <rect id="Base" x="0" y="0" width="32" height="32"></rect>
                                    <path d="M18.6666667,4 C20.1154736,4 20.9189525,4.82984967 22.0242633,6.6378826 C22.0689736,6.71101842 22.3425047,7.16348461 22.4174735,7.28496118 C22.5512583,7.50174087 22.6561755,7.6625083 22.7506401,7.79383351 C22.8129359,7.88043748 22.8673474,7.94925248 22.911738,8 L26.6666667,8 C28.8758057,8 30.6666667,9.790861 30.6666667,12 L30.6666667,24 C30.6666667,26.209139 28.8758057,28 26.6666667,28 L5.33333333,28 C3.12419433,28 1.33333333,26.209139 1.33333333,24 L1.33333333,12 C1.33333333,9.790861 3.12419433,8 5.33333333,8 L9.08826204,8 C9.13265263,7.94925248 9.18706413,7.88043748 9.24935991,7.79383351 C9.34382447,7.6625083 9.44874165,7.50174087 9.58252646,7.28496118 C9.65749529,7.16348461 9.93102635,6.71101842 9.97573672,6.6378826 C11.0810475,4.82984967 11.8845264,4 13.3333333,4 L18.6666667,4 Z M18.6666667,6.66666667 L13.3333333,6.66666667 C13.2176958,6.66666667 12.8540027,7.04229645 12.2509299,8.02878406 C12.2122176,8.09210859 11.934615,8.55130966 11.8518289,8.68545308 C11.6878917,8.95109052 11.5516632,9.15983719 11.4141515,9.35100669 C10.8164922,10.1818764 10.2191229,10.6666667 9.33333333,10.6666667 L5.33333333,10.6666667 C4.59695367,10.6666667 4,11.2636203 4,12 L4,24 C4,24.7363797 4.59695367,25.3333333 5.33333333,25.3333333 L26.6666667,25.3333333 C27.4030463,25.3333333 28,24.7363797 28,24 L28,12 C28,11.2636203 27.4030463,10.6666667 26.6666667,10.6666667 L22.6666667,10.6666667 C21.7808771,10.6666667 21.1835078,10.1818764 20.5858485,9.35100669 C20.4483368,9.15983719 20.3121083,8.95109052 20.1481711,8.68545308 C20.065385,8.55130966 19.7877824,8.09210859 19.7490701,8.02878406 C19.1459973,7.04229645 18.7823042,6.66666667 18.6666667,6.66666667 Z M25.3333333,14.6666667 C26.069713,14.6666667 26.6666667,14.069713 26.6666667,13.3333333 C26.6666667,12.5969537 26.069713,12 25.3333333,12 C24.5969537,12 24,12.5969537 24,13.3333333 C24,14.069713 24.5969537,14.6666667 25.3333333,14.6666667 Z M16,10.6666667 C19.6818983,10.6666667 22.6666667,13.651435 22.6666667,17.3333333 C22.6666667,21.0152317 19.6818983,24 16,24 C12.3181017,24 9.33333333,21.0152317 9.33333333,17.3333333 C9.33333333,13.651435 12.3181017,10.6666667 16,10.6666667 Z M16,13.3333333 C13.790861,13.3333333 12,15.1241943 12,17.3333333 C12,19.5424723 13.790861,21.3333333 16,21.3333333 C18.209139,21.3333333 20,19.5424723 20,17.3333333 C20,15.1241943 18.209139,13.3333333 16,13.3333333 Z" id="icon" fill="#FFFFFF" fill-rule="nonzero"></path>
                                </g>
                            </g>
                        </g>
                    </g>
                </g>
            </g>
        </g>
    </g>
</svg>