<svg width="24" height="20" viewBox="0 0 24 20" fill="none" xmlns="http://www.w3.org/2000/svg">
<path fill-rule="evenodd" clip-rule="evenodd" d="M4.01594 5C4.01594 2.2 6.22471 0 9.03588 0C11.847 0 14.0558 2.2 14.0558 5C14.0558 7.8 11.847 10 9.03588 10C6.22471 10 4.01594 7.8 4.01594 5ZM18.0718 17V19C18.0718 19.6 17.6702 20 17.0678 20C16.4654 20 16.0638 19.6 16.0638 19V17C16.0638 15.3 14.7586 14 13.0518 14H5.01993C3.31315 14 2.00797 15.3 2.00797 17V19C2.00797 19.6 1.60638 20 1.00399 20C0.401594 20 0 19.6 0 19V17C0 14.2 2.20877 12 5.01993 12H13.0518C15.863 12 18.0718 14.2 18.0718 17ZM9.03588 8C7.3291 8 6.02392 6.7 6.02392 5C6.02392 3.3 7.3291 2 9.03588 2C10.7427 2 12.0478 3.3 12.0478 5C12.0478 6.7 10.7427 8 9.03588 8ZM20.2805 12.2C19.7785 12.1 19.1761 12.4 19.0757 12.9C18.9753 13.4 19.2765 14 19.7785 14.1C21.0837 14.4 21.9873 15.6 21.9873 17V19C21.9873 19.6 22.3889 20 22.9913 20C23.5937 20 23.9953 19.6 23.9953 19V17C24.0957 14.7 22.5897 12.7 20.2805 12.2ZM15.0598 0.9C15.2606 0.3 15.7626 0 16.2646 0.2C18.9753 0.8 20.5817 3.6 19.8789 6.4C19.4773 8.2 18.0718 9.5 16.2646 10H16.0638C15.5618 10 15.1602 9.7 15.0598 9.2C14.859 8.7 15.2606 8.1 15.7626 8C16.867 7.7 17.6702 6.9 17.9714 5.8C18.3729 4.1 17.369 2.5 15.7626 2.1C15.2606 2 14.9594 1.4 15.0598 0.9Z" fill="#FF7E00"/>
</svg>
