<svg width="24" height="20" viewBox="0 0 24 20" fill="none" xmlns="http://www.w3.org/2000/svg">
<path fill-rule="evenodd" clip-rule="evenodd" d="M8.5 0C5.7 0 3.5 2.2 3.5 5C3.5 7.8 5.7 10 8.5 10C11.3 10 13.5 7.8 13.5 5C13.5 2.2 11.3 0 8.5 0ZM17 19V17C17 14.2 14.8 12 12 12H5C2.2 12 0 14.2 0 17V19C0 19.6 0.4 20 1 20C1.6 20 2 19.6 2 19V17C2 15.3 3.3 14 5 14H12C13.7 14 15 15.3 15 17V19C15 19.6 15.4 20 16 20C16.6 20 17 19.6 17 19ZM5.5 5C5.5 6.7 6.8 8 8.5 8C10.2 8 11.5 6.7 11.5 5C11.5 3.3 10.2 2 8.5 2C6.8 2 5.5 3.3 5.5 5ZM21 8H23C23.6 8 24 8.4 24 9C24 9.6 23.6 10 23 10H21V12C21 12.6 20.6 13 20 13C19.4 13 19 12.6 19 12V10H17C16.4 10 16 9.6 16 9C16 8.4 16.4 8 17 8H19V6C19 5.4 19.4 5 20 5C20.6 5 21 5.4 21 6V8Z" fill="#FF7E00"/>
</svg>
