<svg width="20" height="20" viewBox="0 0 20 20" fill="none" xmlns="http://www.w3.org/2000/svg">
<path d="M10 19.1663C4.93743 19.1663 0.833374 15.0623 0.833374 9.99967C0.833374 4.93706 4.93743 0.833008 10 0.833008C15.0626 0.833008 19.1667 4.93706 19.1667 9.99967C19.1667 15.0623 15.0626 19.1663 10 19.1663Z" fill="white"/>
<path fill-rule="evenodd" clip-rule="evenodd" d="M10.8363 4.99902H9.16909V11.6657H10.8363V4.99902ZM10.0002 14.999C10.4606 14.999 10.8338 14.6259 10.8338 14.1657C10.8338 13.7055 10.4606 13.3324 10.0002 13.3324C9.53984 13.3324 9.16663 13.7055 9.16663 14.1657C9.16663 14.6259 9.53984 14.999 10.0002 14.999Z" fill="#FF3F57"/>
</svg>
