<svg width="22" height="22" viewBox="0 0 22 22" fill="none" xmlns="http://www.w3.org/2000/svg">
<path fill-rule="evenodd" clip-rule="evenodd" d="M21.7 5.7L11.7 15.7C11.5 15.9 11.3 16 11 16H7C6.4 16 6 15.6 6 15V11C6 10.7 6.1 10.5 6.3 10.3L16.3 0.3C16.7 -0.1 17.3 -0.1 17.7 0.3L21.7 4.3C22.1 4.7 22.1 5.3 21.7 5.7ZM20 13.7V19C20 20.7 18.7 22 17 22H3C1.3 22 0 20.7 0 19V5C0 3.3 1.3 2 3 2H8.3C8.9 2 9.3 2.4 9.3 3C9.3 3.6 8.9 4 8.3 4H3C2.4 4 2 4.4 2 5V19C2 19.6 2.4 20 3 20H17C17.6 20 18 19.6 18 19V13.7C18 13.1 18.4 12.7 19 12.7C19.6 12.7 20 13.1 20 13.7ZM17 2.4L19.6 5L10.6 14H8V11.4L17 2.4Z" fill="#FF7E00"/>
</svg>
