<?xml version="1.0" encoding="UTF-8"?>
<svg width="20px" height="20px" viewBox="0 0 20 20" version="1.1" xmlns="http://www.w3.org/2000/svg" xmlns:xlink="http://www.w3.org/1999/xlink">
    <!-- Generator: sketchtool 59.1 (101010) - https://sketch.com -->
    <title>F2AAE30A-4EE3-40A5-8152-6A331AA851E5@1.00x</title>
    <desc>Created with sketchtool.</desc>
    <g id="Min.-1024px" stroke="none" stroke-width="1" fill="none" fill-rule="evenodd">
        <g id="17.1-Chat-Bubble-Actions---Delete-message---Message-deleted" transform="translate(-469.000000, -134.000000)">
            <g id="chat-room" transform="translate(435.000000, 0.000000)">
                <g id="Group---chat-content" transform="translate(24.000000, 64.000000)">
                    <g id="chat-bubble-/-send-link-/-with-preview" transform="translate(0.000000, 58.000000)">
                        <g id="Group---chat-bubble">
                            <g id="icon-/-basic-/-circle-not-allowed" transform="translate(10.000000, 12.000000)">
                                <g id="icon/basic/circle/not-allowed" transform="translate(0.769231, 0.769231)">
                                    <g>
                                        <rect id="Base" x="0" y="0" width="18" height="18"></rect>
                                        <path d="M9,0.75 C13.5563492,0.75 17.25,4.44365081 17.25,9 C17.25,13.5563492 13.5563492,17.25 9,17.25 C4.44365081,17.25 0.75,13.5563492 0.75,9 C0.75,4.44365081 4.44365081,0.75 9,0.75 Z M2.25,9 C2.25,12.7279221 5.27207794,15.75 9,15.75 C10.5933484,15.75 12.0577542,15.1979308 13.212369,14.2746406 L3.7253594,4.78763096 C2.8020692,5.94224584 2.25,7.40665158 2.25,9 Z M9,2.25 C7.40665158,2.25 5.94224584,2.8020692 4.78763096,3.7253594 L14.2746406,13.212369 C15.1979308,12.0577542 15.75,10.5933484 15.75,9 C15.75,5.27207794 12.7279221,2.25 9,2.25 Z" id="icon" fill="#9B9B9B" fill-rule="nonzero"></path>
                                    </g>
                                </g>
                            </g>
                        </g>
                    </g>
                </g>
            </g>
        </g>
    </g>
</svg>