<?xml version="1.0" encoding="UTF-8"?>
<svg width="24px" height="24px" viewBox="0 0 24 24" version="1.1" xmlns="http://www.w3.org/2000/svg" xmlns:xlink="http://www.w3.org/1999/xlink">
    <!-- Generator: sketchtool 59.1 (101010) - https://sketch.com -->
    <title>C1E1E666-2DCB-4F63-A868-BF44AC83E2CC@1.00x</title>
    <desc>Created with sketchtool.</desc>
    <g id="Min.-1024px" stroke="none" stroke-width="1" fill="none" fill-rule="evenodd">
        <g id="13.8-Group-Chat---Admin---View-members---View-user" transform="translate(-459.000000, -404.000000)">
            <g id="modal---user-info" transform="translate(423.000000, 32.000000)">
                <g id="group---cell-/-action" transform="translate(24.000000, 264.000000)">
                    <g id="cell-/-action-3" transform="translate(0.000000, 96.000000)">
                        <g id="icon-/-basic-/-circle-/-star" transform="translate(12.000000, 12.000000)">
                            <g id="icon/basic/circle/star">
                                <g>
                                    <rect id="Base" x="0" y="0" width="24" height="24"></rect>
                                    <path d="M12,1 C18.0751322,1 23,5.92486775 23,12 C23,18.0751322 18.0751322,23 12,23 C5.92486775,23 1,18.0751322 1,12 C1,5.92486775 5.92486775,1 12,1 Z M12,3 C7.02943725,3 3,7.02943725 3,12 C3,16.9705627 7.02943725,21 12,21 C16.9705627,21 21,16.9705627 21,12 C21,7.02943725 16.9705627,3 12,3 Z M12,4.34045464 L14.2091505,8.81668244 L19.1489611,9.53447894 L15.5744806,13.0187364 L16.418301,17.9385868 L12,15.6157485 L7.58169903,17.9385868 L8.42551943,13.0187364 L4.85103886,9.53447894 L9.79084952,8.81668244 L12,4.34045464 Z M12,8.85955757 L11.1189805,10.644698 L9.14896114,10.9309585 L10.5744806,12.3204966 L10.2379611,14.2825557 L12,13.3561971 L13.7620389,14.2825557 L13.4255194,12.3204966 L14.8510389,10.9309585 L12.8810195,10.644698 L12,8.85955757 Z" id="icon" fill="#FF7D00" fill-rule="nonzero"></path>
                                </g>
                            </g>
                        </g>
                    </g>
                </g>
            </g>
        </g>
    </g>
</svg>