<svg width="20" height="20" viewBox="0 0 20 20" fill="none" xmlns="http://www.w3.org/2000/svg">
<path fill-rule="evenodd" clip-rule="evenodd" d="M15.2 13.8L19.7 18.3C20.1 18.7 20.1 19.3 19.7 19.7C19.5 19.9 19.2 20 19 20C18.8 20 18.5 19.9 18.3 19.7L13.8 15.2C12.3 16.3 10.5 17 8.5 17C3.8 17 0 13.2 0 8.5C0 3.8 3.8 0 8.5 0C13.2 0 17 3.8 17 8.5C17 10.5 16.3 12.4 15.2 13.8ZM8.5 2C4.9 2 2 4.9 2 8.5C2 12.1 4.9 15 8.5 15C10.3 15 11.9 14.3 13.1 13.1C14.3 11.9 15 10.3 15 8.5C15 4.9 12.1 2 8.5 2Z" fill="#FF7E00"/>
</svg>
