<?xml version="1.0" encoding="UTF-8"?>
<svg width="24px" height="24px" viewBox="0 0 24 24" version="1.1" xmlns="http://www.w3.org/2000/svg" xmlns:xlink="http://www.w3.org/1999/xlink">
    <!-- Generator: sketchtool 60 (101010) - https://sketch.com -->
    <title>44187138-B5E8-4E60-9DF2-1C844FBD81CE@1.00x</title>
    <desc>Created with sketchtool.</desc>
    <g id="Min.-1024px" stroke="none" stroke-width="1" fill="none" fill-rule="evenodd">
        <g id="2.4-OTP---Request-again" transform="translate(-576.000000, -576.000000)">
            <g id="component-/-modal-/-verification-code-sent" transform="translate(416.000000, 32.000000)">
                <g id="button-/-tertiary" transform="translate(160.000000, 544.000000)">
                    <g id="icon-/-arrows-/-rotate-/-ccw">
                        <g id="icon/arrows/rotate-ccw">
                            <g>
                                <rect id="Base" x="0" y="0" width="24" height="24"></rect>
                                <path d="M6.19306266,7 L10,7 L10,9 L3,9 L3,2 L5,2 L5,5.27034886 C6.72510698,3.18251178 9.19576641,2 12,2 C17.5228475,2 22,6.4771525 22,12 C22,17.5228475 17.5228475,22 12,22 C6.4771525,22 2,17.5228475 2,12 L4,12 C4,16.418278 7.581722,20 12,20 C16.418278,20 20,16.418278 20,12 C20,7.581722 16.418278,4 12,4 C9.60637619,4 7.55353989,5.07869636 6.19306266,7 Z" id="icon" fill="#FF7D00" fill-rule="nonzero"></path>
                            </g>
                        </g>
                    </g>
                </g>
            </g>
        </g>
    </g>
</svg>