<svg width="22" height="22" viewBox="0 0 22 22" fill="none" xmlns="http://www.w3.org/2000/svg">
<path d="M22 16C22 16.6 21.6 17 21 17H1C0.4 17 0 16.6 0 16C0 15.4 0.4 15 1 15C2.1 15 3 14.1 3 13V8C3 3.6 6.6 0 11 0C13.3727 0 15.5127 1.04683 16.9811 2.70143C17.3001 3.06086 17.2487 3.60201 16.9052 3.93801C16.4646 4.36888 15.74 4.28148 15.3119 3.8382C14.2189 2.70641 12.688 2 11 2C7.7 2 5 4.7 5 8V13C5 13.7 4.8 14.4 4.5 15H17.5C17.3353 14.6707 17.2008 14.3112 17.1129 13.9381C17.0272 13.5741 17.1151 13.197 17.2959 12.8696C17.4302 12.6263 17.6176 12.4164 17.8442 12.2555L17.8915 12.2218C18.3563 11.8916 19 12.2239 19 12.794V13C19 14.1 19.9 15 21 15C21.6 15 22 15.4 22 16Z" fill="#FF7E00"/>
<path d="M13.6 20.5C13 21.5 12 22 11 22C10.5 22 10 21.9 9.5 21.6C9 21.3 8.7 21 8.4 20.5C8.1 20 8.3 19.4 8.8 19.1C9.3 18.8 9.9 19 10.2 19.5C10.2303 19.5303 10.2606 19.5697 10.2936 19.6128C10.3697 19.7119 10.4606 19.8303 10.6 19.9C11.1 20.2 11.7 20 12 19.5C12.3 19 12.9 18.9 13.4 19.1C13.9 19.3 13.9 20 13.6 20.5Z" fill="#FF7E00"/>
<path d="M16.1414 9.44436C16.0633 9.52247 15.9367 9.52247 15.8586 9.44436L14.4142 8C14.0237 7.60948 13.3905 7.60948 13 8C12.6095 8.39052 12.6095 9.02369 13 9.41421L15.2929 11.7071C15.6834 12.0976 16.3166 12.0976 16.7071 11.7071L21 7.41421C21.3905 7.02369 21.3905 6.39052 21 6C20.6095 5.60948 19.9763 5.60947 19.5858 6L16.1414 9.44436Z" fill="#FF7E00"/>
</svg>
