<svg width="24" height="24" viewBox="0 0 24 24" fill="none" xmlns="http://www.w3.org/2000/svg">
<path d="M17.1385 3C19.1978 3 20.8762 4.60755 20.9935 6.63456L21 6.86145V17.1385C21 19.1978 19.3925 20.8762 17.3654 20.9935L17.1385 21H6.86145C4.80218 21 3.1238 19.3925 3.00654 17.3654L3 17.1385V6.86145C3 4.80218 4.60755 3.1238 6.63456 3.00654L6.86145 3H17.1385Z" fill="#FF7E00"/>
<path d="M16.1179 8.36469C15.7604 8.16989 15.2912 8.23029 15.0191 8.49205L14.95 8.56839L10.7681 13.8975L8.97089 12.2328L8.88069 12.1606C8.56372 11.9422 8.09419 11.9443 7.77931 12.1805C7.45959 12.4203 7.41108 12.8175 7.65069 13.1043L7.7166 13.1735L10.2478 15.5172L10.3382 15.5895C10.6885 15.8315 11.2128 15.796 11.5114 15.5087L11.5812 15.4316L16.3623 9.33795L16.4229 9.24682C16.5951 8.93556 16.4725 8.55788 16.1179 8.36469Z" fill="white"/>
</svg>
