<?xml version="1.0" encoding="UTF-8"?>
<svg width="24px" height="24px" viewBox="0 0 24 24" version="1.1" xmlns="http://www.w3.org/2000/svg" xmlns:xlink="http://www.w3.org/1999/xlink">
    <!-- Generator: sketchtool 59.1 (101010) - https://sketch.com -->
    <title>410B6AF4-93EC-4AB2-A453-5A02B553ADCA@1.00x</title>
    <desc>Created with sketchtool.</desc>
    <g id="Min.-1024px" stroke="none" stroke-width="1" fill="none" fill-rule="evenodd">
        <g id="13.8-Group-Chat---Admin---View-members---View-user" transform="translate(-459.000000, -356.000000)">
            <g id="modal---user-info" transform="translate(423.000000, 32.000000)">
                <g id="group---cell-/-action" transform="translate(24.000000, 264.000000)">
                    <g id="cell-/-action-2" transform="translate(0.000000, 48.000000)">
                        <g id="icon-/-chatting-/-comment" transform="translate(12.000000, 12.000000)">
                            <g id="icon/chatting/comment">
                                <g>
                                    <rect id="Base" x="0" y="0" width="24" height="24"></rect>
                                    <path d="M20,3 C21.1045695,3 22,3.8954305 22,5 L22,17 C22,18.1045695 21.1045695,19 20,19 L12.0867962,19 L6,22.8042476 L6,19 L4,19 C2.8954305,19 2,18.1045695 2,17 L2,5 C2,3.8954305 2.8954305,3 4,3 L20,3 Z M20,5 L4,5 L4,17 L8,17 L8,19.1957524 L11.5132038,17 L20,17 L20,5 Z" id="icon" fill="#FF7D00" fill-rule="nonzero"></path>
                                </g>
                            </g>
                        </g>
                    </g>
                </g>
            </g>
        </g>
    </g>
</svg>