<?xml version="1.0" encoding="UTF-8"?>
<svg width="16px" height="16px" viewBox="0 0 16 16" version="1.1" xmlns="http://www.w3.org/2000/svg" xmlns:xlink="http://www.w3.org/1999/xlink">
    <!-- Generator: sketchtool 59 (101010) - https://sketch.com -->
    <title>CEAE04F2-A01C-4578-9154-EE44F9FD148F@1.00x</title>
    <desc>Created with sketchtool.</desc>
    <g id="Min.-1024px" stroke="none" stroke-width="1" fill="none" fill-rule="evenodd">
        <g id="1.5-New-Contact---Search---Results---Not-found" transform="translate(-759.000000, -120.000000)">
            <g id="new-contact" transform="translate(423.000000, 32.000000)">
                <g id="navbar" transform="translate(0.000000, 64.000000)">
                    <g id="search-bar" transform="translate(12.000000, 12.000000)">
                        <g id="icon-/-cutom-/-remove" transform="translate(324.000000, 12.000000)">
                            <g id="icon/custom/circle-remove">
                                <g>
                                    <rect id="Base" fill-rule="nonzero" x="0" y="0" width="16" height="16"></rect>
                                    <path d="M8,1.33333333 C11.6818983,1.33333333 14.6666667,4.31810167 14.6666667,8 C14.6666667,11.6818983 11.6818983,14.6666667 8,14.6666667 C4.31810167,14.6666667 1.33333333,11.6818983 1.33333333,8 C1.33333333,4.31810167 4.31810167,1.33333333 8,1.33333333 Z M10.3318593,4.66666667 L8,6.99852597 L5.6681407,4.66666667 L4.66666667,5.6681407 L6.99852597,8 L4.66666667,10.3318593 L5.6681407,11.3333333 L8,9.00147403 L10.3318593,11.3333333 L11.3333333,10.3318593 L9.00147403,8 L11.3333333,5.6681407 L10.3318593,4.66666667 Z" id="asset" fill="#9B9B9B" fill-rule="nonzero"></path>
                                </g>
                            </g>
                        </g>
                    </g>
                </g>
            </g>
        </g>
    </g>
</svg>