<?xml version="1.0" encoding="UTF-8"?>
<svg width="24px" height="24px" viewBox="0 0 24 24" version="1.1" xmlns="http://www.w3.org/2000/svg" xmlns:xlink="http://www.w3.org/1999/xlink">
    <!-- Generator: sketchtool 60 (101010) - https://sketch.com -->
    <title>058285C2-945C-4D5B-87C7-159F05B6D5A3@1.00x</title>
    <desc>Created with sketchtool.</desc>
    <g id="Min.-1024px" stroke="none" stroke-width="1" fill="none" fill-rule="evenodd">
        <g id="2.6-OTP---Request-Success" transform="translate(-525.000000, -280.000000)">
            <g id="component-/-modal-/-verification-code-sent" transform="translate(416.000000, 32.000000)">
                <g id="button-/-tertiary" transform="translate(109.000000, 248.000000)">
                    <g id="icon-/-call-/-call-numbers">
                        <g id="icon/call/call-numbers">
                            <g>
                                <rect id="Base" x="0" y="0" width="24" height="24"></rect>
                                <path d="M11.7071068,16.0009044 C13.363961,16.0009044 14.7071068,17.3440502 14.7071068,19.0009044 C14.7071068,20.6577587 13.363961,22.0009044 11.7071068,22.0009044 C10.0502525,22.0009044 8.70710678,20.6577587 8.70710678,19.0009044 C8.70710678,17.3440502 10.0502525,16.0009044 11.7071068,16.0009044 Z M11.7071068,18.0009044 C11.154822,18.0009044 10.7071068,18.4486197 10.7071068,19.0009044 C10.7071068,19.5531892 11.154822,20.0009044 11.7071068,20.0009044 C12.2593915,20.0009044 12.7071068,19.5531892 12.7071068,19.0009044 C12.7071068,18.4486197 12.2593915,18.0009044 11.7071068,18.0009044 Z M4.70710678,9.00090444 C6.36396103,9.00090444 7.70710678,10.3440502 7.70710678,12.0009044 C7.70710678,13.6577587 6.36396103,15.0009044 4.70710678,15.0009044 C3.05025253,15.0009044 1.70710678,13.6577587 1.70710678,12.0009044 C1.70710678,10.3440502 3.05025253,9.00090444 4.70710678,9.00090444 Z M11.7071068,9.00090444 C13.363961,9.00090444 14.7071068,10.3440502 14.7071068,12.0009044 C14.7071068,13.6577587 13.363961,15.0009044 11.7071068,15.0009044 C10.0502525,15.0009044 8.70710678,13.6577587 8.70710678,12.0009044 C8.70710678,10.3440502 10.0502525,9.00090444 11.7071068,9.00090444 Z M18.7071068,9.00090444 C20.363961,9.00090444 21.7071068,10.3440502 21.7071068,12.0009044 C21.7071068,13.6577587 20.363961,15.0009044 18.7071068,15.0009044 C17.0502525,15.0009044 15.7071068,13.6577587 15.7071068,12.0009044 C15.7071068,10.3440502 17.0502525,9.00090444 18.7071068,9.00090444 Z M4.70710678,11.0009044 C4.15482203,11.0009044 3.70710678,11.4486197 3.70710678,12.0009044 C3.70710678,12.5531892 4.15482203,13.0009044 4.70710678,13.0009044 C5.25939153,13.0009044 5.70710678,12.5531892 5.70710678,12.0009044 C5.70710678,11.4486197 5.25939153,11.0009044 4.70710678,11.0009044 Z M11.7071068,11.0009044 C11.154822,11.0009044 10.7071068,11.4486197 10.7071068,12.0009044 C10.7071068,12.5531892 11.154822,13.0009044 11.7071068,13.0009044 C12.2593915,13.0009044 12.7071068,12.5531892 12.7071068,12.0009044 C12.7071068,11.4486197 12.2593915,11.0009044 11.7071068,11.0009044 Z M18.7071068,11.0009044 C18.154822,11.0009044 17.7071068,11.4486197 17.7071068,12.0009044 C17.7071068,12.5531892 18.154822,13.0009044 18.7071068,13.0009044 C19.2593915,13.0009044 19.7071068,12.5531892 19.7071068,12.0009044 C19.7071068,11.4486197 19.2593915,11.0009044 18.7071068,11.0009044 Z M4.70710678,2.00090444 C6.36396103,2.00090444 7.70710678,3.34405019 7.70710678,5.00090444 C7.70710678,6.65775869 6.36396103,8.00090444 4.70710678,8.00090444 C3.05025253,8.00090444 1.70710678,6.65775869 1.70710678,5.00090444 C1.70710678,3.34405019 3.05025253,2.00090444 4.70710678,2.00090444 Z M11.7071068,2.00090444 C13.363961,2.00090444 14.7071068,3.34405019 14.7071068,5.00090444 C14.7071068,6.65775869 13.363961,8.00090444 11.7071068,8.00090444 C10.0502525,8.00090444 8.70710678,6.65775869 8.70710678,5.00090444 C8.70710678,3.34405019 10.0502525,2.00090444 11.7071068,2.00090444 Z M18.7071068,2.00090444 C20.363961,2.00090444 21.7071068,3.34405019 21.7071068,5.00090444 C21.7071068,6.65775869 20.363961,8.00090444 18.7071068,8.00090444 C17.0502525,8.00090444 15.7071068,6.65775869 15.7071068,5.00090444 C15.7071068,3.34405019 17.0502525,2.00090444 18.7071068,2.00090444 Z M4.70710678,4.00090444 C4.15482203,4.00090444 3.70710678,4.44861969 3.70710678,5.00090444 C3.70710678,5.55318919 4.15482203,6.00090444 4.70710678,6.00090444 C5.25939153,6.00090444 5.70710678,5.55318919 5.70710678,5.00090444 C5.70710678,4.44861969 5.25939153,4.00090444 4.70710678,4.00090444 Z M11.7071068,4.00090444 C11.154822,4.00090444 10.7071068,4.44861969 10.7071068,5.00090444 C10.7071068,5.55318919 11.154822,6.00090444 11.7071068,6.00090444 C12.2593915,6.00090444 12.7071068,5.55318919 12.7071068,5.00090444 C12.7071068,4.44861969 12.2593915,4.00090444 11.7071068,4.00090444 Z M18.7071068,4.00090444 C18.154822,4.00090444 17.7071068,4.44861969 17.7071068,5.00090444 C17.7071068,5.55318919 18.154822,6.00090444 18.7071068,6.00090444 C19.2593915,6.00090444 19.7071068,5.55318919 19.7071068,5.00090444 C19.7071068,4.44861969 19.2593915,4.00090444 18.7071068,4.00090444 Z" id="icon" fill="#FF7D00" fill-rule="nonzero"></path>
                            </g>
                        </g>
                    </g>
                </g>
            </g>
        </g>
    </g>
</svg>