<?xml version="1.0" encoding="UTF-8"?>
<svg width="48px" height="48px" viewBox="0 0 48 48" version="1.1" xmlns="http://www.w3.org/2000/svg" xmlns:xlink="http://www.w3.org/1999/xlink">
    <!-- Generator: sketchtool 60 (101010) - https://sketch.com -->
    <title>BFD80D26-84CA-4B87-A6B4-603C635909FE@1.00x</title>
    <desc>Created with sketchtool.</desc>
    <g id="Min.-1024px" stroke="none" stroke-width="1" fill="none" fill-rule="evenodd">
        <g id="2.6-OTP---Request-Success" transform="translate(-616.000000, -136.000000)">
            <g id="component-/-modal-/-verification-code-sent" transform="translate(416.000000, 32.000000)">
                <g id="icon" transform="translate(176.000000, 80.000000)">
                    <g id="icon-/-chatting-/-comment-text-" transform="translate(24.000000, 24.000000)">
                        <g id="icon/chatting/comment-text">
                            <g>
                                <rect id="Base" x="0" y="0" width="48" height="48"></rect>
                                <path d="M40,6 C42.209139,6 44,7.790861 44,10 L44,34 C44,36.209139 42.209139,38 40,38 L24.1735925,38 L12,45.6084953 L12,38 L8,38 C5.790861,38 4,36.209139 4,34 L4,10 C4,7.790861 5.790861,6 8,6 L40,6 Z M40,10 L8,10 L8,34 L16,34 L16,38.3915047 L23.0264075,34 L40,34 L40,10 Z M28,24 L28,28 L14,28 L14,24 L28,24 Z M32,16 L32,20 L14,20 L14,16 L32,16 Z" id="icon" fill="#191919" fill-rule="nonzero"></path>
                            </g>
                        </g>
                    </g>
                </g>
            </g>
        </g>
    </g>
</svg>