<?xml version="1.0" encoding="UTF-8"?>
<svg width="24px" height="24px" viewBox="0 0 24 24" version="1.1" xmlns="http://www.w3.org/2000/svg" xmlns:xlink="http://www.w3.org/1999/xlink">
    <!-- Generator: sketchtool 59.1 (101010) - https://sketch.com -->
    <title>06C30BE5-DF3A-4C75-97DE-6EE515548789@1.00x</title>
    <desc>Created with sketchtool.</desc>
    <g id="Min.-1024px" stroke="none" stroke-width="1" fill="none" fill-rule="evenodd">
        <g id="13.8-Group-Chat---Admin---View-members---View-user" transform="translate(-459.000000, -484.000000)">
            <g id="modal---user-info" transform="translate(423.000000, 32.000000)">
                <g id="group---cell-/-action-/-destructive" transform="translate(24.000000, 440.000000)">
                    <g id="cell-/-action-1">
                        <g id="icon-/-basic-/-circle-/-minus" transform="translate(12.000000, 12.000000)">
                            <g id="icon/basic/circle/minus">
                                <g>
                                    <rect id="Base" x="0" y="0" width="24" height="24"></rect>
                                    <path d="M12,1 C18.0751322,1 23,5.92486775 23,12 C23,18.0751322 18.0751322,23 12,23 C5.92486775,23 1,18.0751322 1,12 C1,5.92486775 5.92486775,1 12,1 Z M12,3 C7.02943725,3 3,7.02943725 3,12 C3,16.9705627 7.02943725,21 12,21 C16.9705627,21 21,16.9705627 21,12 C21,7.02943725 16.9705627,3 12,3 Z M17,11 L17,13 L7,13 L7,11 L17,11 Z" id="icon" fill="#FF3F57" fill-rule="nonzero"></path>
                                </g>
                            </g>
                        </g>
                    </g>
                </g>
            </g>
        </g>
    </g>
</svg>