<svg width="20" height="20" viewBox="0 0 20 20" fill="none" xmlns="http://www.w3.org/2000/svg">
<path d="M9.99998 19.1663C4.93737 19.1663 0.833313 15.0623 0.833313 9.99967C0.833313 4.93706 4.93737 0.833008 9.99998 0.833008C15.0626 0.833008 19.1666 4.93706 19.1666 9.99967C19.1666 15.0623 15.0626 19.1663 9.99998 19.1663Z" fill="#FF3F57"/>
<path fill-rule="evenodd" clip-rule="evenodd" d="M10.8364 4.99902H9.16915V11.6657H10.8364V4.99902ZM10.0003 14.999C10.4607 14.999 10.8339 14.6259 10.8339 14.1657C10.8339 13.7055 10.4607 13.3324 10.0003 13.3324C9.53991 13.3324 9.16669 13.7055 9.16669 14.1657C9.16669 14.6259 9.53991 14.999 10.0003 14.999Z" fill="white"/>
</svg>
