<svg width="20" height="20" viewBox="0 0 20 20" fill="none" xmlns="http://www.w3.org/2000/svg">
<path fill-rule="evenodd" clip-rule="evenodd" d="M9.99998 19.1663C4.93737 19.1663 0.833313 15.0623 0.833313 9.99967C0.833313 4.93706 4.93737 0.833008 9.99998 0.833008C15.0626 0.833008 19.1666 4.93706 19.1666 9.99967C19.1666 15.0623 15.0626 19.1663 9.99998 19.1663ZM15.8599 14.6811C16.8863 13.398 17.5 11.7705 17.5 9.99967C17.5 5.85754 14.1421 2.49967 9.99998 2.49967C8.22914 2.49967 6.60163 3.1134 5.31857 4.13976L15.8599 14.6811ZM14.6814 15.8596C13.3983 16.8859 11.7708 17.4997 9.99998 17.4997C5.85784 17.4997 2.49998 14.1418 2.49998 9.99967C2.49998 8.22883 3.11371 6.60133 4.14006 5.31827L14.6814 15.8596Z" fill="#191919" fill-opacity="0.6"/>
</svg>
