<svg width="20" height="20" viewBox="0 0 20 20" fill="none" xmlns="http://www.w3.org/2000/svg">
<path fill-rule="evenodd" clip-rule="evenodd" d="M10 19.1663C4.93743 19.1663 0.833374 15.0623 0.833374 9.99967C0.833374 4.93706 4.93743 0.833008 10 0.833008C15.0627 0.833008 19.1667 4.93706 19.1667 9.99967C19.1667 15.0623 15.0627 19.1663 10 19.1663ZM15.86 14.6811C16.8863 13.398 17.5 11.7705 17.5 9.99967C17.5 5.85754 14.1422 2.49967 10 2.49967C8.2292 2.49967 6.60169 3.1134 5.31864 4.13976L15.86 14.6811ZM14.6814 15.8596C13.3984 16.8859 11.7709 17.4997 10 17.4997C5.8579 17.4997 2.50004 14.1418 2.50004 9.99967C2.50004 8.22883 3.11377 6.60133 4.14012 5.31827L14.6814 15.8596Z" fill="white"/>
</svg>
