<svg width="16" height="17" viewBox="0 0 16 17" fill="none" xmlns="http://www.w3.org/2000/svg">
<path fill-rule="evenodd" clip-rule="evenodd" d="M11.4668 11.034L14.4668 14.034C14.7335 14.3007 14.7335 14.7007 14.4668 14.9673C14.3335 15.1007 14.1335 15.1673 14.0002 15.1673C13.8668 15.1673 13.6668 15.1007 13.5335 14.9673L10.5335 11.9673C9.5335 12.7007 8.3335 13.1673 7.00016 13.1673C3.86683 13.1673 1.3335 10.634 1.3335 7.50065C1.3335 4.36732 3.86683 1.83398 7.00016 1.83398C10.1335 1.83398 12.6668 4.36732 12.6668 7.50065C12.6668 8.83398 12.2002 10.1007 11.4668 11.034ZM7.00016 3.16732C4.60016 3.16732 2.66683 5.10065 2.66683 7.50065C2.66683 9.90065 4.60016 11.834 7.00016 11.834C8.20016 11.834 9.26683 11.3673 10.0668 10.5673C10.8668 9.76732 11.3335 8.70065 11.3335 7.50065C11.3335 5.10065 9.40016 3.16732 7.00016 3.16732Z" fill="#191919" fill-opacity="0.6"/>
</svg>
