<svg width="20" height="22" viewBox="0 0 20 22" fill="none" xmlns="http://www.w3.org/2000/svg">
<path fill-rule="evenodd" clip-rule="evenodd" d="M8.01001 22C8.61076 22 9.01126 21.6 9.01126 21C9.01126 20.4 8.61076 20 8.01001 20H3.00375C2.403 20 2.0025 19.6 2.0025 19V3C2.0025 2.4 2.403 2 3.00375 2H8.01001C8.61076 2 9.01126 1.6 9.01126 1C9.01126 0.4 8.61076 0 8.01001 0H3.00375C1.30163 0 0 1.3 0 3V19C0 20.7 1.30163 22 3.00375 22H8.01001ZM19.9249 10.6C20.025 10.9 20.025 11.2 19.9249 11.4C19.9249 11.5 19.8248 11.6 19.7247 11.7L15.7196 15.7C15.5194 15.9 15.219 16 15.0188 16C14.8185 16 14.5181 15.9 14.3179 15.7C13.9174 15.3 13.9174 14.7 14.3179 14.3L16.6208 12H7.00876C6.40801 12 6.00751 11.6 6.00751 11C6.00751 10.4 6.40801 10 7.00876 10H16.6208L14.3179 7.7C13.9174 7.3 13.9174 6.7 14.3179 6.3C14.7184 5.9 15.3191 5.9 15.7196 6.3L19.7247 10.3C19.7747 10.35 19.7998 10.4 19.8248 10.45C19.8498 10.5 19.8748 10.55 19.9249 10.6Z" fill="#FF3F57"/>
</svg>
