<svg width="65" height="64" viewBox="0 0 65 64" fill="none" xmlns="http://www.w3.org/2000/svg">
<g clip-path="url(#clip0)">
<path d="M32.5 64C50.1731 64 64.5 49.6731 64.5 32C64.5 14.3269 50.1731 0 32.5 0C14.8269 0 0.5 14.3269 0.5 32C0.5 49.6731 14.8269 64 32.5 64Z" fill="#25D366"/>
<path fill-rule="evenodd" clip-rule="evenodd" d="M33.5548 49.8033H33.5469C30.3623 49.8022 27.2331 49.0032 24.4538 47.4872L14.3667 50.1333L17.0662 40.2731C15.401 37.3873 14.5248 34.1139 14.5262 30.7603C14.5304 20.2689 23.0665 11.7333 33.5546 11.7333C38.6449 11.7355 43.4225 13.7171 47.015 17.3138C50.6075 20.9104 52.5849 25.6911 52.5829 30.7753C52.5787 41.2643 44.046 49.799 33.5548 49.8033ZM24.9212 44.0425L25.4987 44.3852C27.9269 45.8262 30.7104 46.5886 33.5484 46.5897H33.5548C42.2718 46.5897 49.3666 39.4948 49.3701 30.7742C49.3717 26.5482 47.7282 22.5747 44.7423 19.5853C41.7563 16.5958 37.7853 14.9487 33.561 14.9472C24.8373 14.9472 17.7424 22.0414 17.7389 30.7614C17.7377 33.7498 18.5739 36.6601 20.157 39.1781L20.5331 39.7765L18.9353 45.6127L24.9212 44.0425ZM42.4899 34.872C42.8215 35.0323 43.0454 35.1405 43.1411 35.3001C43.2599 35.4984 43.2599 36.4503 42.8639 37.5611C42.4675 38.6716 40.5681 39.6853 39.6546 39.8217C38.8355 39.9442 37.7989 39.9953 36.66 39.6333C35.9694 39.4142 35.0839 39.1217 33.9495 38.6318C29.4922 36.7072 26.4801 32.3871 25.9108 31.5706C25.8709 31.5135 25.843 31.4734 25.8274 31.4527L25.8236 31.4475C25.572 31.1118 23.8861 28.8624 23.8861 26.5343C23.8861 24.3443 24.9618 23.1963 25.457 22.668C25.4909 22.6318 25.5222 22.5985 25.5501 22.5679C25.9859 22.0919 26.501 21.9729 26.818 21.9729C27.1349 21.9729 27.4522 21.9759 27.7292 21.9898C27.7634 21.9915 27.7989 21.9913 27.8357 21.9911C28.1128 21.9895 28.4582 21.9874 28.7989 22.8059C28.93 23.1209 29.1219 23.5879 29.3242 24.0805C29.7333 25.0765 30.1853 26.177 30.2648 26.3362C30.3837 26.5742 30.4629 26.8518 30.3045 27.1692C30.2807 27.2168 30.2587 27.2617 30.2377 27.3047C30.1186 27.5477 30.0311 27.7264 29.829 27.9623C29.7496 28.0551 29.6675 28.1551 29.5854 28.255C29.4218 28.4542 29.2583 28.6534 29.1158 28.7953C28.8778 29.0324 28.63 29.2896 28.9074 29.7656C29.1847 30.2416 30.1389 31.7985 31.5524 33.0593C33.0717 34.4145 34.3922 34.9873 35.0616 35.2776C35.1923 35.3343 35.2982 35.3802 35.3759 35.4191C35.8511 35.6572 36.1285 35.6173 36.4059 35.3001C36.6832 34.9828 37.5944 33.9118 37.9113 33.4358C38.2282 32.96 38.5453 33.0393 38.981 33.1979C39.4169 33.3567 41.7544 34.5068 42.2299 34.7447C42.3227 34.7912 42.4095 34.8331 42.4899 34.872Z" fill="#FDFDFD"/>
</g>
<path d="M32.5 63C15.3792 63 1.5 49.1208 1.5 32H-0.5C-0.5 50.2254 14.2746 65 32.5 65V63ZM63.5 32C63.5 49.1208 49.6208 63 32.5 63V65C50.7254 65 65.5 50.2254 65.5 32H63.5ZM32.5 1C49.6208 1 63.5 14.8792 63.5 32H65.5C65.5 13.7746 50.7254 -1 32.5 -1V1ZM32.5 -1C14.2746 -1 -0.5 13.7746 -0.5 32H1.5C1.5 14.8792 15.3792 1 32.5 1V-1Z" fill="#191919" fill-opacity="0.1"/>
<defs>
<clipPath id="clip0">
<path d="M0.5 32C0.5 14.3269 14.8269 0 32.5 0C50.1731 0 64.5 14.3269 64.5 32C64.5 49.6731 50.1731 64 32.5 64C14.8269 64 0.5 49.6731 0.5 32Z" fill="white"/>
</clipPath>
</defs>
</svg>
