<?xml version="1.0" encoding="UTF-8"?>
<svg width="48px" height="48px" viewBox="0 0 48 48" version="1.1" xmlns="http://www.w3.org/2000/svg" xmlns:xlink="http://www.w3.org/1999/xlink">
    <!-- Generator: sketchtool 60 (101010) - https://sketch.com -->
    <title>07728984-36B0-4975-86E7-566757371C69@1.00x</title>
    <desc>Created with sketchtool.</desc>
    <g id="Min.-1024px" stroke="none" stroke-width="1" fill="none" fill-rule="evenodd">
        <g id="1.0-Room---Setting-up-chat" transform="translate(-616.000000, -223.000000)">
            <g id="Setting-up-chatroom" transform="translate(476.000000, 160.000000)">
                <g id="icon-/-chatting-/-comment" transform="translate(140.000000, 63.000000)">
                    <g id="icon/chatting/comment">
                        <g>
                            <rect id="Base" x="0" y="0" width="48" height="48"></rect>
                            <path d="M40,6 C42.209139,6 44,7.790861 44,10 L44,34 C44,36.209139 42.209139,38 40,38 L24.1735925,38 L12,45.6084953 L12,38 L8,38 C5.790861,38 4,36.209139 4,34 L4,10 C4,7.790861 5.790861,6 8,6 L40,6 Z M40,10 L8,10 L8,34 L16,34 L16,38.3915047 L23.0264075,34 L40,34 L40,10 Z" id="icon" fill="#DCDCDC" fill-rule="nonzero"></path>
                        </g>
                    </g>
                </g>
            </g>
        </g>
    </g>
</svg>