<?xml version="1.0" encoding="UTF-8"?>
<svg width="49px" height="48px" viewBox="0 0 49 48" version="1.1" xmlns="http://www.w3.org/2000/svg" xmlns:xlink="http://www.w3.org/1999/xlink">
    <!-- Generator: sketchtool 60 (101010) - https://sketch.com -->
    <title>AB77E44A-96DA-47ED-80EF-519D7D0C6C2E@1.00x</title>
    <desc>Created with sketchtool.</desc>
    <g id="Min.-1024px" stroke="none" stroke-width="1" fill="none" fill-rule="evenodd">
        <g id="1.2-Room---Set-up-failed-(retry)" transform="translate(-616.000000, -223.000000)">
            <g id="Setting-up-chatroom" transform="translate(476.000000, 160.000000)">
                <g id="icon-/-chatting-/-comment-delete" transform="translate(140.000000, 63.000000)">
                    <g id="icon/chatting/comment-delete">
                        <g>
                            <rect id="Base" fill-rule="nonzero" x="0" y="0" width="49" height="48"></rect>
                            <path d="M40.8333333,6 C43.0884961,6 44.9166667,7.790861 44.9166667,10 L44.9166667,34 C44.9166667,36.209139 43.0884961,38 40.8333333,38 L24.677209,38 L12.25,45.6084953 L12.25,38 L8.16666667,38 C5.91150394,38 4.08333333,36.209139 4.08333333,34 L4.08333333,10 C4.08333333,7.790861 5.91150394,6 8.16666667,6 L40.8333333,6 Z M40.8333333,10 L8.16666667,10 L8.16666667,34 L16.3333333,34 L16.3333333,38.3915047 L23.5061244,34 L40.8333333,34 L40.8333333,10 Z M29.1813237,14.5857864 L32.0686763,17.4142136 L27.3873527,22 L32.0686763,26.5857864 L29.1813237,29.4142136 L24.5,24.8284271 L19.8186763,29.4142136 L16.9313237,26.5857864 L21.6126473,22 L16.9313237,17.4142136 L19.8186763,14.5857864 L24.5,19.1715729 L29.1813237,14.5857864 Z" id="icon" fill="#FF3F57" fill-rule="nonzero"></path>
                        </g>
                    </g>
                </g>
            </g>
        </g>
    </g>
</svg>